/* XPM */
static char *result[] = {
/* columns rows colors chars-per-pixel */
"32 32 18 1 ",
"  c #760000",
". c #534721",
"X c #444444",
"o c #77584A",
"O c #705654",
"+ c #767678",
"@ c #AD0000",
"# c #FF2627",
"$ c #8B5E4A",
"% c #A77E5D",
"& c #8F7772",
"* c #979799",
"= c #B7A099",
"- c #B7B7BB",
"; c #D9D9DD",
": c #E7D1C7",
"> c white",
", c None",
/* pixels */
",,,,,,,,,,,,,,,,,,,,,,,,,,,,,,,,",
",,,,,,,,,,,,....,,,....,,,,,,,,,",
",,,,,,,......O&&...O&.,,,,,,,,,,",
",,,,,,,,..O&&.O=&O&=O.....,,,,,,",
",,,,,,...O&==:&O===O.O&O.,,,,,,,",
",,,,,.O&=:.O&=:&&=&&=:O...,,,,,,",
",,,,,,..O=:&===&OO&=:&==&O.,,,,,",
",,,,,.O&=O=&==&==&O===&&O.O.,,,,",
",,,,.O&=O=&=:=====&:=&=:&O...,,,",
",,,.O&.O=:O:==&=:=O=:&&=:&.,,,,,",
",,,,..OO:&O:=&O&:=O=:O:O&=O.,,,,",
",,,,,.&O=OO=&OOO==O&=O=:O&&.,,,,",
",,,,.&OOO O&O @@=& O&O&= OO&.,,,",
",,,,.O.O  OO @ #&O  O O& O...,,,",
",,,,...OO  O@# #O@ @   OOO.,.,,,",
",,,,.,.OOO& @@@ @ @@@ &OOO.,,,,,",
",,,,,,.OO.&&O@#@O@#@O&&.OO.,,,,,",
",,,,,,.O..O&@##OO##@O&O..O.,,,,,",
",,,,,,,**.OO###OO##@OOO.*.,,,,,,",
",,,,,,,++-.O##@.###O.O.-++,,,,,,",
",,,,,,X*-;-###.-###.-.-;-*X,,,,,",
",,,,,,++-;;###-;###--->>;+X,,,,,",
",,,,,,+--;;###;>###-;;>>>;+.,,,,",
",,,,,++-;;;##;>>#@@;>;>>>>+$.,,,",
",,,,,+--;;;;;>>>;;>>>>>>>>-%.,,,",
",,,,,+--;;;>>>>>>>>>>>>>>>-$.,,,",
",,,,,+--;-;>>>>>>>>>>;>>>>;.,,,,",
",,,,,+--;-;>>>>>>>>>>;>>>>;+,,,,",
",,,,,+----;>>>>>>>>>;;;>>>-+,,,,",
",,,,,,++--;>>>>>>>>;;-;>>;+,,,,,",
",,,,,,,,++-;>>>>>;;;;---++,,,,,,",
",,,,,,,,,,+.%%%o------++,,,,,,,,"
};
