/* XPM */
static char *result[] = {
/* columns rows colors chars-per-pixel */
"32 32 39 1 ",
"  c #2E1E22",
". c #760000",
"X c #483A3E",
"o c #534721",
"O c #444444",
"+ c #565657",
"@ c #77584A",
"# c #605458",
"$ c #705654",
"% c #6D6D6E",
"& c #767678",
"* c #AD0000",
"= c #FF2627",
"- c #8B5E4A",
"; c #9D704C",
": c #A77E5D",
"> c #8F7772",
", c #C79D00",
"< c #FFD600",
"1 c #D7906E",
"2 c #1A5586",
"3 c #286E9F",
"4 c #288DCB",
"5 c #858587",
"6 c #9F8781",
"7 c #928A8C",
"8 c #979799",
"9 c #B89D92",
"0 c #B7A099",
"q c #B7B7BB",
"w c #EEBE93",
"e c #FFE1AF",
"r c #D9D9DD",
"t c #E7D1C7",
"y c #C3D5EF",
"u c #FFF7E1",
"i c #E6F7FF",
"p c white",
"a c None",
/* pixels */
"aaaaaaaaaaaaaaaaaaaaaaaaaaaaaaaa",
"aaaaaaaaaaooooaaaooooaaaaaaaaaaa",
"aaaaaaaaaaao>$ooo$>$ooooooaaaaaa",
"aaaaaaaoooooo0>$>0$o>0>$oaaaaaaa",
"aaaaaaaao$0t$$0t0$>t0$$oooaaaaaa",
"aaaaaaaooo$>t>>0>>t0>>00>$oaaaaa",
"aaaaaao$>0>000>>00>>0t>$ooaaaaaa",
"aaaaao$>$>0t>t0>>t0$>0t0>$oaaaaa",
"aaaaoooo>0t>.>t0$0t>$>$$>>$oaaaa",
"aaaaaao>$0t$*$t0$0t>*$>.*o>$oaaa",
"aaaaao$$o>0.=*>0*>0>=*$*=.ooaaaa",
"aaaaao$oo$>*==$>=$>$=*..*.$oaaaa",
"aaaaaaoao1$1ww1$1$$$$>$$=*$$oaaa",
"aaaaaaaaowwwooo11>$$$0>$==*$oaaa",
"aaaaaaaaowe1r yww0>we00>===ooaaa",
"aaaaaaaaowe17 ieu0w;e>0>*===oaaa",
"aaaaaaaaowewXXpuu0e;w$>>*===.aaa",
"aaaaaaaao1ee##uuu>11o$>$$*===aaa",
"aaaaaaaao;weeuuuueue$$$$$*===.aa",
"aaaaaaaaao1weeuuuue1$o$o$o=..*aa",
"aaaaaaaaaao;11www1;oo&oaoa.***aa",
"aaaaaaaaaaooooooooo8pr&aaaa**aaa",
"aaaaaaaaaao,<rpprqr8&pr&aaaaaaaa",
"aaaaaaaaaaao,233O&88&prq&aaaaaaa",
"aaaaaaaaaaaO<34o99++8ppq&aaaaaaa",
"aaaaaaaaaaaO5-o:::6;opprq&aaaaaa",
"aaaaaaaaaaaO+2o:::@o2pprq&aaaaaa",
"aaaaaaaaaaao,+o--@o%+pprqq&aaaaa",
"aaaaaaaaaao--,<ooo<<<prqqq&aaaaa",
"aaaaaaaaaao---oo66:-@prqq&aaaaaa",
"aaaaaaaaaaaoooaao:::-prq&aaaaaaa",
"aaaaaaaaaaaaaaaaaoooo&q&aaaaaaaa"
};
