/* XPM */
static char *result[] = {
/* columns rows colors chars-per-pixel */
"32 32 39 1 ",
"  c #2E1E22",
". c #760000",
"X c #483A3E",
"o c #534721",
"O c #444444",
"+ c #565657",
"@ c #77584A",
"# c #605458",
"$ c #705654",
"% c #6D6D6E",
"& c #767678",
"* c #AD0000",
"= c #FF2627",
"- c #8B5E4A",
"; c #9D704C",
": c #A77E5D",
"> c #8F7772",
", c #C79D00",
"< c #FFD600",
"1 c #D7906E",
"2 c #1A5586",
"3 c #286E9F",
"4 c #288DCB",
"5 c #858587",
"6 c #9F8781",
"7 c #928A8C",
"8 c #979799",
"9 c #B89D92",
"0 c #B7A099",
"q c #B7B7BB",
"w c #EEBE93",
"e c #FFE1AF",
"r c #D9D9DD",
"t c #E7D1C7",
"y c #C3D5EF",
"u c #FFF7E1",
"i c #E6F7FF",
"p c white",
"a c None",
/* pixels */
"aaaaaaaaaaaaaaaaaaaaaaaaaaaaaaaa",
"aaaaaaaaaaaaooooaaaooooaaaaaaaaa",
"aaaaaaaoooooo$>$ooo$>oaaaaaaaaaa",
"aaaaaaaao$>0>o$0>$>0ooooooaaaaaa",
"aaaaaaaooo$$0t>$0t0$$t0$oaaaaaaa",
"aaaaaao$>00>>0t>>0>>t>$oooaaaaaa",
"aaaaaaaoo$>t0>>00>>000>0>$oaaaaa",
"aaaaaao$>0t0>$0t>>0t>t0>$>$oaaaa",
"aaaaao$>>$$>$>t0$0t>.>t0>ooooaaa",
"aaaao$>o*.>$*>t0$0t$*$t0$>oaaaaa",
"aaaaaoo.=*$*=>0>*0>*=.0>o$$oaaaa",
"aaaaao$.*..*=$>$=>$==*>$oo$oaaaa",
"aaaao$$*=$$>$$$$1$1ww1$1oaoaaaaa",
"aaaao$*==$>0$$$>11ooowwwoaaaaaaa",
"aaaaoo===>00ew>0wwy r1ewoaaaaaaa",
"aaaao===*>0>e;w0uei 71ewoaaaaaaa",
"aaaa.===*>>$w;e0uupXXwewoaaaaaaa",
"aaaa===*$$>$o11>uuu##ee1oaaaaaaa",
"aaa.===*$$$$$eueuuuueew;oaaaaaaa",
"aaa*..=o$o$o$1euuuueew1oaaaaaaaa",
"aaa***.aoao&oo;1www11;oaaaaaaaaa",
"aaaa**aaaa&rp8oooooooooaaaaaaaaa",
"aaaaaaaaa&rp&8rqrppr<,oaaaaaaaaa",
"aaaaaaaa&qrp&88&O332,oaaaaaaaaaa",
"aaaaaaaa&qpp8++99o43<Oaaaaaaaaaa",
"aaaaaaa&qrppo;6:::o-5Oaaaaaaaaaa",
"aaaaaaa&qrpp2o@:::o2+Oaaaaaaaaaa",
"aaaaaa&qqrpp+%o@--o+,oaaaaaaaaaa",
"aaaaaa&qqqrp<<<ooo<,--oaaaaaaaaa",
"aaaaaaa&qqrp@-:66oo---oaaaaaaaaa",
"aaaaaaaa&qrp-:::oaaoooaaaaaaaaaa",
"aaaaaaaaa&q&ooooaaaaaaaaaaaaaaaa"
};
