/* XPM */
static char *result[] = {
/* columns rows colors chars-per-pixel */
"32 32 15 1 ",
"  c #760000",
". c #534721",
"X c #444444",
"o c #705654",
"O c #767678",
"+ c #AD0000",
"@ c #FF2627",
"# c #8F7772",
"$ c #979799",
"% c #B7A099",
"& c #B7B7BB",
"* c #D9D9DD",
"= c #E7D1C7",
"- c white",
"; c None",
/* pixels */
";;;;;;;;;;;;....;;;....;;;;;;;;;",
";;;;;;;......o##...o#.;;;;;;;;;;",
";;;;;;;;..o##.o%#o#%o.....;;;;;;",
";;;;;;...o#%%=#o%%%o.o#o.;;;;;;;",
";;;;;.o#%=.o#%=##%##%=o...;;;;;;",
";;;;;;..o%=#%%%#oo#%=#%%#o.;;;;;",
";;;;;.o#%o%#%%#%%#o%%%##o.o.;;;;",
";;;;.o#%o%#%=%%%%%#=%#%=#o...;;;",
";;;.o#.o%=o=%%#%=%o%=##%=#.;;;;;",
";;;;..oo=#o=%#o#=%o%=o=o#%o.;;;;",
";;;;;.#o%oo%#ooo%%o#%o%=o##.;;;;",
";;;;.#ooo o#o ++%# o#o#% oo#.;;;",
";;;;.o.o  oo + @#o  o o# o...;;;",
";;;;...oo  o+@ @o+ +   ooo.;.;;;",
";;;;.;.ooo# +++ + +++ #ooo.;;;;;",
";;;;;;.oo.##o+@+o+@+o##.oo.;;;;;",
";;;;;;.o..o#o+@@o@@+o#o..o.;;;;;",
";;;;;;;.$.ooo+@@o@@+ooo.$.;;;;;;",
";;;;;;;OO&.o.@@@.@@@.o.&OO;;;;;;",
";;;;;;X$&*&.&@@@&@@@&.&*&$X;;;;;",
";;;;;;XO&*-&&@@@*@@@&&-*&OX;;;;;",
";;;;;;O&*--*&@@@-@@*&*--*&O;;;;;",
";;;;;;O&*--*-&@@-@@&-*--*&O;;;;;",
";;;;;O&&*-----*---*-----*&&O;;;;",
";;;;;O&&--*-----------*--&&O;;;;",
";;;;;O&*--*-----------*--*&O;;;;",
";;;;;O&*--&*---------*&--*&O;;;;",
";;;;;O&*-*&*---------*&*-*&O;;;;",
";;;;;O&**&&**-------**&&**&O;;;;",
";;;;;;O&&&&&*-------*&&&&&O;;;;;",
";;;;;;;;OOO&&&&&&&&&&&OOO;;;;;;;",
";;;;;;;;;;;;...;;;...;;;;;;;;;;;"
};
