/* XPM */
static char *result[] = {
/* columns rows colors chars-per-pixel */
"32 32 40 1 ",
"  c #2E1E22",
". c #760000",
"X c #483A3E",
"o c #534721",
"O c #444444",
"+ c #565657",
"@ c #77584A",
"# c #605458",
"$ c #705654",
"% c #6D6D6E",
"& c #767678",
"* c #AD0000",
"= c #FF2627",
"- c #8B5E4A",
"; c #9D704C",
": c #A77E5D",
"> c #8F7772",
", c #C79D00",
"< c #FFD600",
"1 c #FFFC00",
"2 c #D7906E",
"3 c #1A5586",
"4 c #286E9F",
"5 c #288DCB",
"6 c #858587",
"7 c #9F8781",
"8 c #928A8C",
"9 c #979799",
"0 c #B89D92",
"q c #B7A099",
"w c #B7B7BB",
"e c #EEBE93",
"r c #FFE1AF",
"t c #D9D9DD",
"y c #E7D1C7",
"u c #C3D5EF",
"i c #FFF7E1",
"p c #E6F7FF",
"a c white",
"s c None",
/* pixels */
"ssssssssssssoooosssoooosssssssss",
"sssssssoooooo$>$ooo$>ossssssssss",
"sssssssso$>q>o$q>$>qoooooossssss",
"sssssssooo$$qy>$qyq$$yq$osssssss",
"sssssso$>qq>>qy>>q>>y>$ooossssss",
"sssssssoo$>yq>>qq>>qqq>q>$osssss",
"sssssso$>qyq>$qy>>qy>yq>$>$ossss",
"ssssso$>>$$>$>yq$qy>.>yq>oooosss",
"sssso$>o*.>$*>yq$qy$*$yq$>osssss",
"sssssoo.=*$*=>q>*q>*=.q>o$$ossss",
"ssssso$.*..*=$>$=>$==*>$oo$ossss",
"sssso$$*=$$>$$$$2$2ee2$2ososssss",
"sssso$**=$>q$$$>22oooeeeosssssss",
"ssssoo*==>qqre>qeeu t2reosssssss",
"ssssoo*==>q>r;eqirp 82reosssssss",
"ssssso*==>>$e;rqiiaXXereosssssss",
"ssssso*==$>$o22>iii##rr2osssssss",
"sssss.*=*$$$$ririiiirre;osssssss",
"sssss.*=*o$o$2riiiirre2ossssssss",
"sssss..=*so&oo;2eee22;osssssssss",
"ssssss...s&awwooooooooosssssssss",
"sssssssss&aw9t9wtaat<,osssssssss",
"ssssssssswa9&9&O4443,ossssssssss",
"ssssssss&waO700o5554<Ossssssssss",
"ssssssss&ta&-:-o----6Ossssssssss",
"sssssss&wta&-::o5543+Ossssssssss",
"sssssss&wta&@::o%%%+,ossssssssss",
"sssssss&wta&ooo<11<,osssssssssss",
"sssssss&wta&&o7700oossssssssssss",
"ssssssss&ta&&o@-:-osssssssssssss",
"sssssssss&w&so@-::osssssssssssss",
"ssssssssssssssoooossssssssssssss"
};
