/* XPM */
static char *result[] = {
/* columns rows colors chars-per-pixel */
"32 32 40 1 ",
"  c #2E1E22",
". c #760000",
"X c #483A3E",
"o c #534721",
"O c #444444",
"+ c #565657",
"@ c #77584A",
"# c #605458",
"$ c #705654",
"% c #6D6D6E",
"& c #767678",
"* c #AD0000",
"= c #FF2627",
"- c #8B5E4A",
"; c #9D704C",
": c #A77E5D",
"> c #8F7772",
", c #C79D00",
"< c #FFD600",
"1 c #FFFC00",
"2 c #D7906E",
"3 c #1A5586",
"4 c #286E9F",
"5 c #288DCB",
"6 c #858587",
"7 c #9F8781",
"8 c #928A8C",
"9 c #979799",
"0 c #B89D92",
"q c #B7A099",
"w c #B7B7BB",
"e c #EEBE93",
"r c #FFE1AF",
"t c #D9D9DD",
"y c #E7D1C7",
"u c #C3D5EF",
"i c #FFF7E1",
"p c #E6F7FF",
"a c white",
"s c None",
/* pixels */
"ssssssssssssssssssssssssssssssss",
"ssssssssssoooosssoooosssssssssss",
"ssssssssssso>$ooo$>$oooooossssss",
"sssssssooooooq>$>q$o>q>$osssssss",
"sssssssso$qy$$qyq$>yq$$ooossssss",
"sssssssooo$>y>>q>>yq>>qq>$osssss",
"sssssso$>q>qqq>>qq>>qy>$oossssss",
"ssssso$>$>qy>yq>>yq$>qyq>$osssss",
"ssssoooo>qy>.>yq$qy>$>$$>>$ossss",
"sssssso>$qy$*$yq$qy>*$>.*o>$osss",
"ssssso$$o>q.=*>q*>q>=*$*=.oossss",
"ssssso$oo$>*==$>=$>$=*..*.$ossss",
"ssssssoso2$2ee2$2$$$$>$$=*$$osss",
"ssssssssoeeeooo22>$$$q>$==*$osss",
"ssssssssoer2t ueeq>erqq>===oosss",
"ssssssssoer28 priqe;r>q>*==*osss",
"ssssssssoereXXaiiqr;e$>>*=**.sss",
"sssssssso2rr##iii>22o$>$$****sss",
"sssssssso;erriiiirir$$$$$****.ss",
"ssssssssso2erriiiir2$o$o$o*...ss",
"sssssssssso;22eee2;oo&osos....ss",
"ssssssssssooooooooowwa&ssss..sss",
"sssssssssso,<taatw9w99a&ssssssss",
"ssssssssssso,3444Owt&+at&sssssss",
"sssssssssssO<4555o9+077aw&ssssss",
"sssssssssssO6------o:::atw&sssss",
"sssssssssssO+455555o-::waww&ssss",
"ssssssssssso<%%%%%%%o--oatw&ssss",
"ssssssssssso0111<<<,;oo&atw&ssss",
"sssssssssso::--@ooo--o&&at&sssss",
"sssssssssso:::@ossooos&&aw&sssss",
"sssssssssssoooossssssss&&&ssssss"
};
