/* XPM */
static char *result[] = {
/* columns rows colors chars-per-pixel */
"32 32 41 1 ",
"  c #2E1E22",
". c #323234",
"X c #760000",
"o c #483A3E",
"O c #534721",
"+ c #444444",
"@ c #565657",
"# c #77584A",
"$ c #605458",
"% c #705654",
"& c #6D6D6E",
"* c #767678",
"= c #AD0000",
"- c #FF2627",
"; c #8B5E4A",
": c #9D704C",
"> c #A77E5D",
", c #8F7772",
"< c #C79D00",
"1 c #FFD600",
"2 c #FFFC00",
"3 c #D7906E",
"4 c #1A5586",
"5 c #286E9F",
"6 c #288DCB",
"7 c #858587",
"8 c #9F8781",
"9 c #928A8C",
"0 c #979799",
"q c #B89D92",
"w c #B7A099",
"e c #B7B7BB",
"r c #EEBE93",
"t c #FFE1AF",
"y c #D9D9DD",
"u c #E7D1C7",
"i c #C3D5EF",
"p c #FFF7E1",
"a c #E6F7FF",
"s c white",
"d c None",
/* pixels */
"ddddddddddOOOOdddOOOOddddddddddd",
"dddddddddddO,%OOO,,%OOOOOOdddddd",
"dddddddOOOOO%w,%,w%O,,%OOddddddd",
"ddddddddO%,%O%www%,uww,%OOOddddd",
"dddddddOOO%uw,,w,,uw,%Ouw,%Odddd",
"ddddddO%,ww,uww,w,www,uw%OOddddd",
"dddddO%O%,,wwwwwuw,wu,w%w,%Odddd",
"ddddOOO%,uw,wu,uu,X%wu,w%w,%Oddd",
"ddddddO,uw,,uw%uw%=X,uXuw%O,%Odd",
"dddddO%w,%,%w,Xw,=-=%wX,u%%OOddd",
"dddddO,,%w,X,%=,%---=,X%w%,Odddd",
"ddddO,%%w,%3%3r%3rrr3%3%,%%,Oddd",
"ddddOOO3w%3OOOrrttrOOO33%3O%Oddd",
"ddddOdO3,%ri yrtttry ir3%3OOOddd",
"ddddddO%%:ra 9rtttr9 ar:%%OdOddd",
"ddddddO%%:rsootppptoosr:O%Oddddd",
"ddddddO%OO3r$$ppppp$$r3OO%Oddddd",
"dddddddO*eO3rtppppptr3Oe*Odddddd",
"ddddddd*eseO:rtppptr:Oese*dddddd",
"dddddd+00*syOO3rrr3OOys*00+ddddd",
"dddddd+*y07ssyOOOOOyss70y*+ddddd",
"dddddd.+@@.4ess1<1sse4.@@+.ddddd",
"dddddd*8&+.44456265444.+&8*ddddd",
"ddddd*;>q..#456616654#..q>;*dddd",
"ddddd*>>;.+4#;;777;;#4+.;>>*dddd",
"ddddd*;;O.+@566&2&665@+.O;;*dddd",
"ddddd*ee*O<@@&&2@2&&@@<O*ee*dddd",
"ddddd*ys**O<112+++211<O**sy*dddd",
"ddddd*ys***O8q8OOO8q8O***sy*dddd",
"dddddd*s*ddO;>#OdO#>;Odd*s*ddddd",
"ddddddd*dddO>>;OdO;>>Oddd*dddddd",
"ddddddddddddOOOdddOOOddddddddddd"
};
