/* XPM */
static char *result[] = {
/* columns rows colors chars-per-pixel */
"32 32 128 2 ",
"   c None",
".  c #0C1619",
"X  c #171D1C",
"o  c #1A1E1C",
"O  c #241D1F",
"+  c #2B261F",
"@  c #2E1F21",
"#  c #311F22",
"$  c #372023",
"%  c #3E2025",
"&  c #332A20",
"*  c #2A3436",
"=  c #3D3E3A",
"-  c #412226",
";  c #4D2329",
":  c #52242A",
">  c #5B252C",
",  c #4D3A28",
"<  c #553D29",
"1  c #63262E",
"2  c #68272F",
"3  c #6A2730",
"4  c #6E2831",
"5  c #712732",
"6  c #742932",
"7  c #7C2A34",
"8  c #5E432C",
"9  c #4D5A5D",
"0  c #685342",
"q  c #755840",
"w  c #7C6048",
"e  c #7D6652",
"r  c #5A676B",
"t  c #812B35",
"y  c #8E2C39",
"u  c #942D3A",
"i  c #9B2D3C",
"p  c #A6323D",
"a  c #AA313F",
"s  c #AE3E3B",
"d  c #B13C3D",
"f  c #825635",
"g  c #8C5B36",
"h  c #845A3A",
"j  c #935E39",
"k  c #B0413B",
"l  c #96613A",
"z  c #9B643B",
"x  c #AC6C3E",
"c  c #B5703F",
"v  c #E35D3F",
"b  c #E4653D",
"n  c #E46C3B",
"m  c #E6743D",
"M  c #E7783F",
"N  c #AD3140",
"B  c #B43341",
"V  c #BC3343",
"C  c #BB3C40",
"Z  c #C33445",
"A  c #C83B44",
"S  c #D43749",
"D  c #D63B48",
"F  c #DC3A4A",
"G  c #E33C4C",
"H  c #AE6E40",
"J  c #A06F4A",
"K  c #B37141",
"L  c #BC7542",
"P  c #C34140",
"I  c #CC4242",
"U  c #D54345",
"Y  c #D44D41",
"T  c #DC4C44",
"R  c #E04747",
"E  c #E44D46",
"W  c #E44449",
"Q  c #E64848",
"!  c #E35443",
"~  c #E45B41",
"^  c #C77C46",
"/  c #E97644",
"(  c #E77840",
")  c #E97C42",
"_  c #868078",
"`  c #CE8048",
"'  c #D78449",
"]  c #DA8348",
"[  c #DF884B",
"{  c #EB8246",
"}  c #EC8648",
"|  c #E38B4C",
" . c #ED8C4C",
".. c #EF914F",
"X. c #F0924F",
"o. c #F4934F",
"O. c #F5944F",
"+. c #EF9250",
"@. c #F09250",
"#. c #F49450",
"$. c #7C8A8E",
"%. c #7C8B90",
"&. c #888680",
"*. c #808889",
"=. c #9CACB2",
"-. c black",
";. c black",
":. c black",
">. c black",
",. c black",
"<. c black",
"1. c black",
"2. c black",
"3. c black",
"4. c black",
"5. c black",
"6. c black",
"7. c black",
"8. c black",
"9. c black",
"0. c black",
"q. c black",
"w. c black",
"e. c black",
"r. c black",
"t. c black",
"y. c black",
"u. c black",
/* pixels */
"                                                                ",
"                                                                ",
"                                                                ",
"                      5 u                                       ",
"                      > 5                                       ",
"                          : N t                                 ",
"                        : V G D 6     : >                       ",
"                        a G ! Q u   ; V 7                       ",
"              2 :     2 S G b ! Z > B E t                       ",
"            @ V y     7 G v n b R 5 Y n U 6                     ",
"            7 F F y # 6 ~ m } ) v P b m b U 6                   ",
"            y Q ~ R Z s n { @. .) n }  .m b U 6                 ",
"            y Q n n E ~ m  .....} }  ./ } M ! S >               ",
"            2 I n n n n { ........+.{ E )  .m E 3   2           ",
"              5 v ) ) m  .....X...+.{ ~ { +.) ~ B 4 Z ;         ",
"              3 ~ )  . .....X.| .... .} ....) ~ i k W t         ",
"            1 A b ) ..X...X.' 8 H X...@... .n b Y n Q t         ",
"          1 Z E m  .X.|  .#.x r q X.X.[ @.} m ) } / I ;         ",
"          B G b ) X.| 8 g #.x $.w o.L , L  . ...} ~ u           ",
"        - Z W n  .@.^ X o g L = h L & . f #.+. .n d $           ",
"        7 G ! ) ..X.[ < * *.J c K _ 9 + L X...) ! F y           ",
"        t G ! ) ....X.] e =.0 O.z %.&.c @... .m ! G V O         ",
"        7 G ~ (  .} ..X.] l K @.` j L @. .} ..{ b G B           ",
"        $ V E n } } { { ) } } } } { ) { {  . .m v F 2           ",
"          7 D b (  . . ... .} } }  ... . ...{ ~ G a             ",
"            7 U b M {  ...+.+.+.@..... .{ ) ~ G S 5             ",
"              7 U b n m )  . . . . .) m n ~ G V 7               ",
"                3 p T ! b n n n n n n ~ R Z 7 $                 ",
"                    1 a C W W W W W I a t -                     ",
"                        % 5 6 6 6 6 >                           ",
"                                                                ",
"                                                                "
};
