/* XPM */
static char *result[] = {
/* columns rows colors chars-per-pixel */
"32 32 128 2 ",
"   c None",
".  c #130507",
"X  c #180608",
"o  c #0D1719",
"O  c #121B1C",
"+  c #24090C",
"@  c #2A0B0E",
"#  c #2F0C10",
"$  c #350D12",
"%  c #3B0F14",
"&  c #1D201D",
"*  c #23231E",
"=  c #1D2221",
"-  c #332B22",
";  c #3E3A32",
":  c #441117",
">  c #461218",
",  c #4A1319",
"<  c #52151C",
"1  c #58161E",
"2  c #5D181F",
"3  c #512715",
"4  c #641922",
"5  c #6D1B25",
"6  c #721D27",
"7  c #761D28",
"8  c #791F29",
"9  c #4F3C2B",
"0  c #563E29",
"q  c #7D202A",
"w  c #604833",
"e  c #6C513A",
"r  c #444948",
"t  c #775A43",
"y  c #7B5E47",
"u  c #5E6260",
"i  c #647276",
"p  c #717573",
"a  c #84222D",
"s  c #8A232F",
"d  c #8D2330",
"f  c #922532",
"g  c #9C2835",
"h  c #A22A37",
"j  c #AB2B3A",
"k  c #B72E3E",
"l  c #B92F3F",
"z  c #B4353A",
"x  c #B8333D",
"c  c #BE383E",
"v  c #C23C3E",
"b  c #895936",
"n  c #8B5C39",
"m  c #96643F",
"M  c #9D653C",
"N  c #A3683D",
"B  c #AB6C3E",
"V  c #E3633D",
"C  c #E46C3B",
"Z  c #E6733D",
"A  c #E7783F",
"S  c #BD2F40",
"D  c #C53442",
"F  c #CE3546",
"G  c #D13647",
"H  c #D33847",
"J  c #D43648",
"K  c #DA374A",
"L  c #D73948",
"P  c #DE3A4B",
"I  c #E23C4C",
"U  c #85644B",
"Y  c #A2724E",
"T  c #B77342",
"R  c #BE7744",
"E  c #8A7460",
"W  c #D04640",
"Q  c #DB4745",
"!  c #E24B45",
"~  c #E24349",
"^  c #E64948",
"/  c #E25343",
"(  c #E85146",
")  c #E45B40",
"_  c #CD7640",
"`  c #C27944",
"'  c #CC7B43",
"]  c #DC7B42",
"[  c #E56140",
"{  c #E56940",
"}  c #E77740",
"|  c #E77840",
" . c #E97D43",
".. c #D38248",
"X. c #DA864A",
"o. c #E78146",
"O. c #EA8246",
"+. c #EC8648",
"@. c #E38A4C",
"#. c #ED8D4D",
"$. c #F08D4D",
"%. c #EF914F",
"&. c #F0914F",
"*. c #EF9250",
"=. c #F29250",
"-. c #F59450",
";. c #F69551",
":. c #748184",
">. c #768489",
",. c #98A0A1",
"<. c #B0BFC4",
"1. c black",
"2. c black",
"3. c black",
"4. c black",
"5. c black",
"6. c black",
"7. c black",
"8. c black",
"9. c black",
"0. c black",
"q. c black",
"w. c black",
"e. c black",
"r. c black",
"t. c black",
"y. c black",
"u. c black",
/* pixels */
"                                                                ",
"                                                                ",
"                                                                ",
"                                                                ",
"                                                                ",
"                  3                                             ",
"                                      7 1                       ",
"                                    , s 2                       ",
"                        + @       q P s .                       ",
"              >       , k D 4   $ l ~ I f                       ",
"            s g       5 I I j 6 S I / ) J , + $ $ $             ",
"          a Q P d     h I I P I ( V A C ~ S j J J J a           ",
"        $ D ) ) P d q P ~ / V { A O.#.A / I I I I I h           ",
"        7 ^ C C ) P j Q C | O.#.%.*.O.V ~ ~ V / I j $           ",
"        7 ^ C } Z V / C | #.*.%.%.%.+.C ! V Z C ^ a             ",
"        6 I )  .#. .C C #.*.%.=.%.%.%.O.Z A #.Z W ,             ",
"        + l ~ C +.%. .A #.%.&.` @.%.%.%.#.#.#.C v $ g ,         ",
"          5 P V | %.#.$.&.=.` ; n &.%.=.%.%.| V Q c ( a         ",
"          8 P ! Z #.=.` X.-.B >.y &.%.T #.#.Z A C C V H %       ",
"        . k I V A &...- 0 @.B i t %.n * M $.O.#.+.A V L %       ",
"        X k I C +.=.' & O w R 9 M m = o b =.%.%.+.A V H %       ",
"        5 K / } #.&.#.b r <.U @.B ,.:.0 X.&.%.O.C V ^ s         ",
"        8 I / | %.#.&.%.Y p e -.N u E X.=.#.%. .V I F ,         ",
"        4 J ) A #.O.#.#.o._ X.&.@._ ] $.#.O.%. .V I f           ",
"          j ~ C O.#. .O.+.O. . . .O.+. .O.#.#.C / G :           ",
"          < P ) Z +.#.%.*.#.#.#.#.%.*.#.%.#.} / I s             ",
"            f I ) Z | #.%.*.%.*.=.=.#.#.O.Z / I l >             ",
"              5 x / C C  .O.O.O.O.O.| C [ ! G a >               ",
"                # 5 z ~ ) V V V V V V ^ D f %                   ",
"                    + 4 a F F F F G h 5 ,                       ",
"                          # # # # #                             ",
"                                                                "
};
