/* XPM */
static char *result[] = {
/* columns rows colors chars-per-pixel */
"32 32 128 2 ",
"   c None",
".  c #010200",
"X  c #140507",
"o  c #180608",
"O  c #0D1719",
"+  c #121B1C",
"@  c #260A0D",
"#  c #290A0E",
"$  c #2E0B10",
"%  c #350E12",
"&  c #3B0F14",
"*  c #3E1015",
"=  c #1D201D",
"-  c #23231E",
";  c #1D2221",
":  c #332B22",
">  c #3E3A32",
",  c #421116",
"<  c #451218",
"1  c #4A1219",
"2  c #52151C",
"3  c #59171E",
"4  c #4E2614",
"5  c #5F1820",
"6  c #631922",
"7  c #6B1B24",
"8  c #721D27",
"9  c #761D28",
"0  c #7B1F2A",
"q  c #4F3C2B",
"w  c #563E29",
"e  c #604833",
"r  c #6C513A",
"t  c #444948",
"y  c #775A43",
"u  c #7B5E47",
"i  c #5E6260",
"p  c #647276",
"a  c #717573",
"s  c #84212D",
"d  c #8E2430",
"f  c #922532",
"g  c #9D2736",
"h  c #A22A36",
"j  c #A52A38",
"k  c #AD2D3B",
"l  c #B7363B",
"z  c #895936",
"x  c #8B5C39",
"c  c #96643F",
"v  c #9D653C",
"b  c #A3683D",
"n  c #AB6C3E",
"m  c #E35D3F",
"M  c #E4643D",
"N  c #E46C3B",
"B  c #E6733D",
"V  c #BB2F40",
"C  c #BE3140",
"Z  c #C43243",
"A  c #CA3445",
"S  c #CA3D41",
"D  c #D33B46",
"F  c #D63649",
"G  c #DB374B",
"H  c #DD3A4A",
"J  c #E23B4C",
"K  c #E93B4F",
"L  c #85644B",
"P  c #A2724E",
"I  c #B77442",
"U  c #BE7744",
"Y  c #8A7460",
"T  c #D64244",
"R  c #DC4645",
"E  c #DC4B43",
"W  c #E04647",
"Q  c #E24C45",
"!  c #E34549",
"~  c #E54A48",
"^  c #E35144",
"/  c #E35B41",
"(  c #CD7640",
")  c #C27844",
"_  c #CC7B43",
"`  c #DC7B42",
"'  c #E66A43",
"]  c #E67240",
"[  c #E77940",
"{  c #E97D43",
"}  c #D38248",
"|  c #DA864A",
" . c #E78146",
".. c #EA8246",
"X. c #EC8549",
"o. c #E38A4C",
"O. c #ED8D4C",
"+. c #EF914F",
"@. c #F0924F",
"#. c #EF9250",
"$. c #F29250",
"%. c #F59450",
"&. c #748184",
"*. c #768489",
"=. c #98A0A1",
"-. c #B0BFC4",
";. c black",
":. c black",
">. c black",
",. c black",
"<. c black",
"1. c black",
"2. c black",
"3. c black",
"4. c black",
"5. c black",
"6. c black",
"7. c black",
"8. c black",
"9. c black",
"0. c black",
"q. c black",
"w. c black",
"e. c black",
"r. c black",
"t. c black",
"y. c black",
"u. c black",
/* pixels */
"                                                                ",
"                                                                ",
"                                                                ",
"                                                                ",
"                                                                ",
"                      & j s         . 4                         ",
"                      6 J G f s s s s %                         ",
"              *       3 A J J J J J K j                         ",
"            0 C ,   d H J Q m / ^ G Z 7 X # # #                 ",
"          < F J 0 3 H J ^ N [ B M D 1 o g A A A s               ",
"          1 H ^ A s J ^ N { +.{ / J Z k ! / M ^ H s             ",
"          1 H M / R ^ N { +.+.O.B / W ^ N B ..[ / H s           ",
"          , A ^ B N N B O.+.+.+...B N N ..O.O.] / J H 7         ",
"            s ~ B X.B { +.+.+.+.+.X.[ ..+.O.B / J J A 2         ",
"            s ~ B O.B { +.+.+.+.+.+.O.+.+.X.N ! J Z ,           ",
"          % V Q B O.....+.+.+.$.@.+.X.X.+.X.N m W C 0 6 %       ",
"          9 W M X.+.+.O.+.+.@.) o.O./ ' +.B B { N / W A &       ",
"        # C / B O.+.+.$.@.$.) > x @.X.X.+.{ O.#.X.N M A %       ",
"        9 W N ..+.+.@.) | %.n *.u @.+.I O.+.#.O.B M ! 0         ",
"      % Z W B O.+.@.} : w o.n p y +.x - v $.+...M ! k &         ",
"      & G W B O.+.$._ = + e U q v c ; O z %.O.B Q G 2           ",
"      % C ! M { +.@.O.z t -.L o.n =.&.w | @.+...M J j           ",
"        8 J / [ +.+.@.+.P a r %.b i Y | $.O.+.X.M J k           ",
"        @ V Q N X...O.O. .( | @.o.( ` @.X.X.O.B m H 3           ",
"          8 D M [ X.{ ..X...{ { { ..X.{ ..O...m ! j             ",
"            7 T M [ X.+.#.+.O.O.O.+.#.O.+...m J F 6             ",
"              8 T M B [ X.O.X.X.O.X.X.{ ] / J V 8               ",
"                5 h E ^ N N N N N N N / W C 8 @                 ",
"                    2 j l ! ! ! ! ! S k 0 %                     ",
"                        $ 7 7 7 7 7 1                           ",
"                                                                ",
"                                                                "
};
