/* XPM */
static char *result[] = {
/* columns rows colors chars-per-pixel */
"32 32 128 2 ",
"   c None",
".  c #030101",
"X  c #080203",
"o  c #160607",
"O  c #1C0709",
"+  c #0C1619",
"@  c #171D1C",
"#  c #1A1E1C",
"$  c #24090C",
"%  c #2B0B0F",
"&  c #2F0C10",
"*  c #380E13",
"=  c #2B261F",
"-  c #332A20",
";  c #2A3436",
":  c #3D3E3A",
">  c #431117",
",  c #471218",
"<  c #4B1319",
"1  c #53151C",
"2  c #5A171F",
"3  c #432011",
"4  c #651922",
"5  c #6D1B25",
"6  c #711D26",
"7  c #771E28",
"8  c #791F29",
"9  c #4D3A28",
"0  c #553D29",
"q  c #772028",
"w  c #7D202B",
"e  c #5E432C",
"r  c #4D5A5D",
"t  c #685342",
"y  c #755840",
"u  c #7C6048",
"i  c #7D6652",
"p  c #5A676B",
"a  c #83212D",
"s  c #8A232F",
"d  c #8D2430",
"f  c #912431",
"g  c #9B2734",
"h  c #A22937",
"j  c #A52A38",
"k  c #AB2B3A",
"l  c #B52E3D",
"z  c #B92F3F",
"x  c #B4353A",
"c  c #B9333D",
"v  c #825635",
"b  c #8C5B36",
"n  c #845A3A",
"m  c #935E39",
"M  c #96613A",
"N  c #9B643B",
"B  c #AC6C3E",
"V  c #B5703F",
"C  c #E35D3F",
"Z  c #E4633D",
"A  c #E46C3B",
"S  c #E6743D",
"D  c #BD3040",
"F  c #C43342",
"G  c #CD3546",
"H  c #D03547",
"J  c #D33548",
"K  c #DB374B",
"L  c #DC394A",
"P  c #E43C4D",
"I  c #AE6E40",
"U  c #A06F4A",
"Y  c #B37141",
"T  c #BC7542",
"R  c #DE4447",
"E  c #DE4049",
"W  c #E14647",
"Q  c #E34B46",
"!  c #E24349",
"~  c #E44848",
"^  c #E35443",
"/  c #E95645",
"(  c #E45A41",
")  c #E85C42",
"_  c #C77C46",
"`  c #E77640",
"'  c #E77840",
"]  c #E97C43",
"[  c #E07C4B",
"{  c #868078",
"}  c #CE8048",
"|  c #D78449",
" . c #DA8348",
".. c #DF884B",
"X. c #EB8246",
"o. c #EC8649",
"O. c #E38A4C",
"+. c #ED8C4C",
"@. c #EF914F",
"#. c #F1924F",
"$. c #EF9250",
"%. c #F19350",
"&. c #F49450",
"*. c #7C8A8E",
"=. c #7C8B90",
"-. c #888680",
";. c #808889",
":. c #9CACB2",
">. c black",
",. c black",
"<. c black",
"1. c black",
"2. c black",
"3. c black",
"4. c black",
"5. c black",
"6. c black",
"7. c black",
"8. c black",
"9. c black",
"0. c black",
"q. c black",
"w. c black",
"e. c black",
"r. c black",
"t. c black",
"y. c black",
"u. c black",
/* pixels */
"                                                                ",
"                                                                ",
"                      3                                         ",
"                                                                ",
"                                                                ",
"                                                                ",
"                  2 8       4 O                                 ",
"                $ F P 6   8 K z 1         < *                   ",
"                  s l <   w P P F 1     1 H k *                 ",
"                  X o     j ~ ^ P F 1   $ z P k *               ",
"                , g >   2 L Q A ^ P f   % D P P j               ",
"              d J L < . k P Z S A W K < h P ^ Q J 2             ",
"            d L ! E > 7 K ^ ' +.S W L F ! C A Z P s             ",
"          < K ! Z ( j K ^ ' @.$.o.( W ( A ] o.S Q s % 1         ",
"        > z ! Z S A ^ ^ S +.@.#.o.A A S +.@.] A ! J F 7         ",
"        a P ( S +.] A A ` @.#.O.@.' A X.@.@.] C ! ( / q         ",
"      * G ! A X.$.o.A ) o.#.| e I +.] +.@.@.] A A A ) 8         ",
"      1 K ( S +.@.@.] [ +.&.B p y #.%...#.@.] ' o.A R 5         ",
"      j P Z X.@.@.#.O.e b &.B *.u #.T 9 T %.] +.o.( z O         ",
"      k P Z X.@.@.%._ @ # b T : n T - + v &.+.o.A ! 4           ",
"      j P Z X.@.@.#...0 ; ;.U V Y { r = T %.@.' ( l &           ",
"      1 K Z X.@.@.@.#. .i :.t #.N =.-.V %.@.+.S ^ a             ",
"      * G ^ ' @.+.o.@.#. .M Y %.} m T %.+.o.@.o.Z c *           ",
"        a ! Z o.@.o.X.X.] o.o.o.o.X.] X.X.o.@.] C L <           ",
"        > F ^ ' +.@.o.o.@.o.o.o.o.+.@.o.o.$.+.A W J ,           ",
"          d P ( S o.@.@.@.@.@.@.$.@.@.$.$.+.` ^ P s             ",
"            f P ( S ' o.+.@.@.@.#.@.+.+.X.S ^ P z ,             ",
"              5 c ^ Z A S X.X.X.X.] S A Z Q L z ,               ",
"                & 5 x ! ( Z Z Z Z Z Z Q F k 5 %                 ",
"                    $ 4 a G G G G H j 4 <                       ",
"                          & & & & &                             ",
"                                                                "
};
