/* XPM */
static char *result[] = {
/* columns rows colors chars-per-pixel */
"32 32 128 2 ",
"   c None",
".  c #0F0405",
"X  c #170608",
"o  c #180608",
"O  c #0D1719",
"+  c #121B1C",
"@  c #26090D",
"#  c #2C0B0F",
"$  c #2F0C10",
"%  c #310D11",
"&  c #3B0F14",
"*  c #3E1015",
"=  c #1D201D",
"-  c #23231E",
";  c #1D2221",
":  c #332C22",
">  c #3E3A32",
",  c #431117",
"<  c #471218",
"1  c #4C131A",
"2  c #54151C",
"3  c #5A171F",
"4  c #5F1820",
"5  c #641922",
"6  c #6C1B25",
"7  c #731D27",
"8  c #771D29",
"9  c #781F29",
"0  c #4F3C2B",
"q  c #563E29",
"w  c #604833",
"e  c #6C513A",
"r  c #444948",
"t  c #775A43",
"y  c #7B5E47",
"u  c #5E6260",
"i  c #647276",
"p  c #717573",
"a  c #84212D",
"s  c #8B232F",
"d  c #8D2430",
"f  c #942532",
"g  c #9B2735",
"h  c #9F2836",
"j  c #A22937",
"k  c #A62A38",
"l  c #AC2C3A",
"z  c #B62E3E",
"x  c #B92F3F",
"c  c #B4353A",
"v  c #C43B3F",
"b  c #895936",
"n  c #8B5C39",
"m  c #96643F",
"M  c #9D653C",
"N  c #A3683D",
"B  c #AB6C3E",
"V  c #E35E3F",
"C  c #E4633D",
"Z  c #E46C3B",
"A  c #E6733D",
"S  c #BB2F40",
"D  c #BE3041",
"F  c #C73244",
"G  c #CD3445",
"H  c #D13547",
"J  c #D63649",
"K  c #DA364A",
"L  c #D73948",
"P  c #DD3A4A",
"I  c #E23B4C",
"U  c #85644B",
"Y  c #A2724E",
"T  c #B77342",
"R  c #BE7744",
"E  c #8A7460",
"W  c #E14747",
"Q  c #E34B46",
"!  c #E4444A",
"~  c #E54848",
"^  c #E25343",
"/  c #E35A41",
"(  c #C17744",
")  c #CD7640",
"_  c #CC7B43",
"`  c #DC7B42",
"'  c #E77340",
"]  c #E77840",
"[  c #E97C43",
"{  c #D38248",
"}  c #DA864A",
"|  c #E78146",
" . c #EA8246",
".. c #EC8648",
"X. c #E38A4C",
"o. c #EE8D4D",
"O. c #F08F4E",
"+. c #EF914F",
"@. c #F0914F",
"#. c #EF9250",
"$. c #F29350",
"%. c #F59450",
"&. c #748184",
"*. c #768489",
"=. c #98A0A1",
"-. c #B0BFC4",
";. c black",
":. c black",
">. c black",
",. c black",
"<. c black",
"1. c black",
"2. c black",
"3. c black",
"4. c black",
"5. c black",
"6. c black",
"7. c black",
"8. c black",
"9. c black",
"0. c black",
"q. c black",
"w. c black",
"e. c black",
"r. c black",
"t. c black",
"y. c black",
"u. c black",
/* pixels */
"                                                                ",
"                                                                ",
"                                                                ",
"                                                                ",
"                                                                ",
"                    ,                                           ",
"                  5 k       9 2                                 ",
"                    @     X D H g                               ",
"                          X x I I g 2 a     #                   ",
"                          o S ^ Q G j I 5 @ h 5                 ",
"                # &       6 K / Z Q H j *   f H 5               ",
"              5 z l %     a ! C A C l @   a P ~ G 3             ",
"            d I P 7     4 G C A ..Z ! l a L / Z ~ g             ",
"          s P ! v @   3 G Q Z ..+.[ C ! Q / A ] / P *           ",
"        . z ! C ^ f 5 G I V [ o.+.o.Z C Z [ o...C P a a         ",
"        4 H / A A Q P Q V [ o.$.@.o.[ Z [ o.+.[ ^ I I J &       ",
"        8 ! Z  . .Z / Z [ +.@.( X.+.+.[ ..#.o.Z ^ C ^ J &       ",
"        a ~ A o.+...] [ @.$.( > n @.+.$.+.+.[ Z ' [ C L &       ",
"      & H W Z o.+.+.@.( } %.B *.y @.+.T o.+.[  .o.[ ^ J &       ",
"      & J W Z o.+.$.{ : q X.B i t +.n - M $.o.o.[ Z ! d         ",
"      & J W Z o.+.$._ = + w R 0 M m ; O b $.+.[ Z Q I 7         ",
"      & J W Z o.+.@.o.b r -.U X.B =.&.q } @.o.A ^ I D $         ",
"      & H W A o.+.+.@.+.Y p e %.N u E } $.o.#...C I l           ",
"        a ! C [ o. .o.o.| ) } @.X.) ` O.o...+.[ C P 3           ",
"        , F ^ A ..o.[  ... .[ [ [  ...[  .o.o.Z ^ H ,           ",
"          d I / A ..o.+.#.o.o.o.o.+.#.o.+.o.] ^ I d             ",
"            f P / A [ o.+.#.#.#.$.#.o.o. .A ^ I x <             ",
"              f L ^ C Z [  . . . . .] Z C Q P z <               ",
"                1 j c ! / C C C C C C Q I z 6 #                 ",
"                    @ 5 a G G G G H j 5 5 @                     ",
"                          $ $ $ $ $                             ",
"                                                                "
};
