/* XPM */
static char *result[] = {
/* columns rows colors chars-per-pixel */
"32 32 57 1 ",
"  c #45283C",
". c #663931",
"X c #4F4134",
"o c #5A4A3B",
"O c #5C4C3C",
"+ c #5D4D3D",
"@ c #645241",
"# c #675443",
"$ c #6B5846",
"% c #6F5B48",
"& c #735F4B",
"* c #74604C",
"= c #76614D",
"- c #77624E",
"; c #79634F",
": c #7A644F",
"> c #7B6550",
", c #8F563B",
"< c #806954",
"1 c #816A54",
"2 c #876F58",
"3 c #897059",
"4 c #8E755C",
"5 c #91775E",
"6 c #92785F",
"7 c #947960",
"8 c #9A7E64",
"9 c #9B7F65",
"0 c #9C8065",
"q c #A28569",
"w c #A88A6D",
"e c #AA8B6E",
"r c #AC8D6F",
"t c #AD8E71",
"y c #B39374",
"u c #B99778",
"i c #BA9979",
"p c #BE9C7B",
"a c #C5A280",
"s c #C9A582",
"d c #CCA784",
"f c #CEA985",
"g c #D2AC88",
"h c #D4AE89",
"j c #D5AF8A",
"k c #D7B08B",
"l c #D9B28C",
"z c #DCB48E",
"x c #DFB791",
"c c #E0B891",
"v c #E3BA93",
"b c #E6BC95",
"n c #E8BE96",
"m c #E9BF97",
"M c #EAC098",
"N c #EEC39A",
"B c None",
/* pixels */
"BBBBBBBBBBBBBBBBBBBBBBBBBBBBBBBB",
"BBBBBBBBBBBBBBBBBBBBBBBBBBBBBBBB",
"BBBBBBBBBBBBBBBBBBBBBBBBBBBBBBBB",
"BBBBBBBBBBBBBBBBBBBBBBBBBBBBBBBB",
"BBBBBBBBBBBBBB+<:oBBBBBBBBBBBBBB",
"BBBBBBBBBBBBB eh,, BBBBBBBBBBBBB",
"BBBBBBBBBBBBB 0i # BBBBBBBBBBBBB",
"BBBBB#,,,,,,,,,,,,,,..,,,.BBBBBB",
"BBBB.,,xNNNNNNNNNNNNNNNNx,.BBBBB",
"BBBB.,zwNNNNNNNNNNNNNNNNwz,.BBBB",
"BBBB.,NNd*=zNcffxNNMkNxnNN,,.BBB",
"BBBB ,NM&lvmx%ui;vNrOc8gNN,,,.BB",
"BBBBB.Nu4lgkypNN-kz@&j6hNN,,.. B",
"BBBB.,N9756q2hNM$c1X+d3jNN,,,, B",
"BBBB.,Np<p$za<s<tc=nh5>y9a,,,.BB",
"BBBB .NNgfzNMkfhNvzNmllfgb,, BBB",
"BBBB ,xwNNNNNNNNNNNNNNNNwz,.BBBB",
"BBBB.,,xNNNNNNNNNNNNNNNNx, BBBBB",
"BBBB..B#,,,,,,,,,,,,,,,,,.BBBBBB",
"BBBBBBBBBBBBB #.## BBBBBBBBBBBBB",
"BBBBBBBBBBBBB ,.., BBBBBBBBBBBBB",
"BBBBBBBBBBBBB ,.., BBBBBBBBBBBBB",
"BBBBBBBBBBBBB ,.., BBBBBBBBBBBBB",
"BBBBBBBBBBBBB ,... BBBBBBBBBBBBB",
"BBBBBBBBBBBBB ,... BBBBBBBBBBBBB",
"BBBBBBBBBBBBB ,... BBBBBBBBBBBBB",
"BBBBBBBBBBBBB ,.,. BBBBBBBBBBBBB",
"BBBBBBBBBBBBB ..,, BBBBBBBBBBBBB",
"BBBBBBBBBBBBB ..,, BBBBBBBBBBBBB",
"BBBBBBBBBBBBB ..., BBBBBBBBBBBBB",
"BBBBBBBBBBBBB ,.#, BBBBBBBBBBBBB",
"BBBBBBBBBBBBB ,.., BBBBBBBBBBBBB"
};
