/* XPM */
static char *result[] = {
/* columns rows colors chars-per-pixel */
"32 32 6 1 ",
"  c #1F1A17",
". c #6C2A0A",
"X c #A75325",
"o c #E69434",
"O c #FCDA64",
"+ c None",
/* pixels */
"++++++++++++++++++++++++++++++++",
"++++++++++++++++++++++++++++++++",
"++++++++++++++++++++++++++++++++",
"++++++++++++++++++++++++++++++++",
"++++                        ++++",
"++++ .. .XXX.XXXXXX.XXX. .. ++++",
"++++ .. XXXX.XXXXXX.XXXX .. ++++",
"++++ .X ooooXooooooXoooo X. ++++",
"++++ XX ooooXooooooXoooo XX ++++",
"++++ XX ooooXooooooXoooo XX ++++",
"++++ XX OOOOoOOOOOOoOOOO XX ++++",
"++++ Xo OOOOoOOOOOOoOOOO oX ++++",
"++++ oo OOOOoOOOOOOoOOOO oo ++++",
"++++ oo oooo.oooooo.oooo oo ++++",
"++++ oo Xooo.oooooo.oooX oo ++++",
"++++ oO.                .Oo ++++",
"++++ oOOOOOOo oOOo oOOOOOOo ++++",
"++++ XoooooX oOooOo XoooooX ++++",
"++++         XO  OX         ++++",
"++++ XX XXXX. O  O .XXXX XX ++++",
"++++ oo XooXX XOOX XXooX oo ++++",
"++++ oo oooXoX XX XoXooo oo ++++",
"++++ oX oooXooX  XooXooo Xo ++++",
"++++ XX XooXoooXXoooXooX XX ++++",
"++++ XX                  XX ++++",
"++++ X. .XXooooooooooXX. .X ++++",
"++++ .. ..XXXooooooXXX.. .. ++++",
"++++                        ++++",
"++++++++++++++++++++++++++++++++",
"++++++++++++++++++++++++++++++++",
"++++++++++++++++++++++++++++++++",
"++++++++++++++++++++++++++++++++"
};
