/* XPM */
static char *result[] = {
/* columns rows colors chars-per-pixel */
"32 32 10 1 ",
"  c #1F1A17",
". c #3A2412",
"X c #5E3E24",
"o c #614103",
"O c #895C06",
"+ c #BB7F0B",
"@ c #8C5F3A",
"# c #B47C4E",
"$ c #E89E0E",
"% c None",
/* pixels */
"%%%%%%%%%%%%%%%%%%%%%%%%%%%%%%%%",
"%%%%%%%%%%%%%%%%%%%%%%%%%%%%%%%%",
"%%%%%%%%%%%%%%%%%%%%%%%%%%%%%%%%",
"%%%%%%%%%%%%%%%%%%%%%%%%%%%%%%%%",
"%%%%                        %%%%",
"%%%% .. oOOOoOOOOOOoOOOo .. %%%%",
"%%%% .. OOOOoOOOOOOoOOOO .. %%%%",
"%%%% .X ++++O++++++O++++ X. %%%%",
"%%%% XX ++++O++++++O++++ XX %%%%",
"%%%% XX ++++O++++++O++++ XX %%%%",
"%%%% XX $$$$+$$$$$$+$$$$ XX %%%%",
"%%%% X@ $$$$+$$$$$$+$$$$ @X %%%%",
"%%%% @@ $$$$+$$$$$$+$$$$ @@ %%%%",
"%%%% @@ ++++O++++++O++++ @@ %%%%",
"%%%% @@ O+++O++++++O+++O @@ %%%%",
"%%%% @#.                .#@ %%%%",
"%%%% @######@ @##@ @######@ %%%%",
"%%%% X@@@@@X @#@@#@ X@@@@@X %%%%",
"%%%%         X#  #X         %%%%",
"%%%% XX OOOOo #  # oOOOO XX %%%%",
"%%%% @@ O++OO X##X OO++O @@ %%%%",
"%%%% @@ +++O+O XX O+O+++ @@ %%%%",
"%%%% @X +++O++O  O++O+++ X@ %%%%",
"%%%% XX O++O+++OO+++O++O XX %%%%",
"%%%% XX                  XX %%%%",
"%%%% X. .XX@@@@@@@@@@XX. .X %%%%",
"%%%% .. ..XXX@@@@@@XXX.. .. %%%%",
"%%%%                        %%%%",
"%%%%%%%%%%%%%%%%%%%%%%%%%%%%%%%%",
"%%%%%%%%%%%%%%%%%%%%%%%%%%%%%%%%",
"%%%%%%%%%%%%%%%%%%%%%%%%%%%%%%%%",
"%%%%%%%%%%%%%%%%%%%%%%%%%%%%%%%%"
};
