/* XPM */
static char *result[] = {
/* columns rows colors chars-per-pixel */
"32 32 8 1 ",
"  c #141B1B",
". c #433737",
"X c #345A52",
"o c #4E484A",
"O c #4A7F4B",
"+ c #965746",
"@ c #74A334",
"# c None",
/* pixels */
"################################",
"##############    ##############",
"############  OOOO  ############",
"########### OO@@@@OO ###########",
"########## O@@@@@@@@O ##########",
"######### @@@@@@@@@@@@ #########",
"#######  @@@@@@@@@@@@@@  #######",
"#####  O@@@@@@@@@@@@@@@@O  #####",
"#    OO@@@@@@@@@@@@@@@@@@OO    #",
"# O@@@@@@@@@@@@@@@@@@@@@@O@@@O #",
"# OO@@@@O@@@@@@@@@@@@@@O@@@@OO #",
"# OOOOOO@@O@@@@@O@@@O@@@O@@OOO #",
"## OOOOOOOO@@O@@O@@@OOOO@@OOO ##",
"###  XX@@@OOO@@@@OOOO@@@@@@  ###",
"### XX@@@@@@@@@@@@@@@@@@@@@X ###",
"   OOO@@@@@@@@@@@@@@@@O@@@@@O   ",
" OOOOO@@@@@@@@@@@@@@@@O@@@@@OOO ",
" OOOOOOOOOO@@@@@@O@@@@OOOOOOOOO ",
" OOOOOOOOOOO@@@OOOO@@@OOOOOOOOO ",
"# OOOOOXOOOOO@OOOOOOOOOXXOOOOO #",
"## XXXXOOOOOOOOOOOOOOOOOXXXXX ##",
"### XXXOOOOOOXOOOOOOOOOOXXXX ###",
"## XXXXOOOOXXOOOOOOOOOOOXXXXX ##",
"## XXXXXXXXXOOOOOOOXXXXXXXXXX ##",
"##    XXXXXXXOOOOOOXXXXXXX    ##",
"### oo..oooXXXOOOOXXX....... ###",
"### ooo+oooooXXOOXX..oo.oooo ###",
"## ++o++++++++XXXXo+ooo.o.ooo ##",
"## +++++++++++++o+o+ooo.ooooo ##",
"###+++++++++++++o+++ooooooooo###",
"######+++++++++++++ooooooo######",
"################################"
};
